#N canvas 9 25 1361 847 12;
#X floatatom 183 355 5 0 0 0 - - -;
#X obj 183 395 mtof;
#X floatatom 182 423 5 0 0 0 - - -;
#X obj 228 531 *~;
#X obj 308 301 tgl 15 0 empty empty empty 17 7 0 10 -262144 -1 -1 1
1;
#X obj 283 373 bng 15 250 50 0 empty empty empty 17 7 0 10 -262144
-1 -1;
#X obj 272 458 line 0 3;
#X floatatom 272 485 5 0 0 0 - - -;
#X msg 257 406 0.1 300;
#N canvas 199 -780 855 292 oscs 0;
#X obj 22 13 inlet;
#X obj 22 124 osc~;
#X obj 94 120 osc~;
#X obj 226 126 osc~;
#X obj 402 129 osc~;
#X obj 89 67 * 1.015;
#X obj 228 74 * 0.503;
#X obj 403 78 * 1.496;
#X obj 612 78 * 2.01;
#X obj 24 241 outlet~;
#X obj 609 128 osc~;
#X connect 0 0 5 0;
#X connect 0 0 6 0;
#X connect 0 0 7 0;
#X connect 0 0 8 0;
#X connect 0 0 1 0;
#X connect 1 0 9 0;
#X connect 2 0 9 0;
#X connect 3 0 9 0;
#X connect 4 0 9 0;
#X connect 5 0 2 0;
#X connect 6 0 3 0;
#X connect 7 0 4 0;
#X connect 8 0 10 0;
#X connect 10 0 9 0;
#X restore 182 458 pd oscs;
#X floatatom 362 369 5 0 0 0 - - -;
#X obj 392 394 mtof;
#X floatatom 405 422 5 0 0 0 - - -;
#X obj 405 506 *~;
#X obj 492 278 tgl 15 0 empty empty empty 17 7 0 10 -262144 -1 -1 1
1;
#X obj 482 328 bng 15 250 50 0 empty empty empty 17 7 0 10 -262144
-1 -1;
#X obj 463 399 line 0 3;
#X floatatom 462 424 5 0 0 0 - - -;
#X msg 477 361 0.1 300;
#N canvas 585 457 855 292 oscs 0;
#X obj 22 13 inlet;
#X obj 22 124 osc~;
#X obj 94 120 osc~;
#X obj 226 126 osc~;
#X obj 402 129 osc~;
#X obj 88 67 * 1.015;
#X obj 228 74 * 0.503;
#X obj 403 78 * 1.496;
#X obj 612 78 * 2.01;
#X obj 24 241 outlet~;
#X obj 609 128 osc~;
#X connect 0 0 5 0;
#X connect 0 0 6 0;
#X connect 0 0 7 0;
#X connect 0 0 8 0;
#X connect 0 0 1 0;
#X connect 1 0 9 0;
#X connect 2 0 9 0;
#X connect 3 0 9 0;
#X connect 4 0 9 0;
#X connect 5 0 2 0;
#X connect 6 0 3 0;
#X connect 7 0 4 0;
#X connect 8 0 10 0;
#X connect 10 0 9 0;
#X restore 405 467 pd oscs;
#X obj 937 160 mtof;
#X floatatom 928 185 5 0 0 0 - - -;
#X obj 1032 211 *~;
#X obj 993 80 tgl 15 0 empty empty empty 17 7 0 10 -262144 -1 -1 1
1;
#X obj 992 134 bng 15 250 50 0 empty empty empty 17 7 0 10 -262144
-1 -1;
#X floatatom 1082 229 5 0 0 0 - - -;
#X msg 992 160 0.1 300;
#N canvas 640 483 855 292 oscs 0;
#X obj 22 13 inlet;
#X obj 22 124 osc~;
#X obj 94 120 osc~;
#X obj 226 126 osc~;
#X obj 402 129 osc~;
#X obj 88 67 * 1.015;
#X obj 228 74 * 0.503;
#X obj 403 78 * 1.496;
#X obj 612 78 * 2.01;
#X obj 24 241 outlet~;
#X obj 609 128 osc~;
#X connect 0 0 5 0;
#X connect 0 0 6 0;
#X connect 0 0 7 0;
#X connect 0 0 8 0;
#X connect 0 0 1 0;
#X connect 1 0 9 0;
#X connect 2 0 9 0;
#X connect 3 0 9 0;
#X connect 4 0 9 0;
#X connect 5 0 2 0;
#X connect 6 0 3 0;
#X connect 7 0 4 0;
#X connect 8 0 10 0;
#X connect 10 0 9 0;
#X restore 975 205 pd oscs;
#X obj 992 108 metro 900;
#X obj 12 373 dac~;
#X obj 25 125 catch~ out;
#X obj 228 558 throw~ out;
#X obj 405 540 throw~ out;
#X obj 1026 256 throw~ out;
#X obj 802 335 mtof;
#X floatatom 809 365 5 0 0 0 - - -;
#X obj 834 433 *~;
#X obj 838 269 tgl 15 0 empty empty empty 17 7 0 10 -262144 -1 -1 0
1;
#X obj 887 271 bng 15 250 50 0 empty empty empty 17 7 0 10 -262144
-1 -1;
#X obj 885 331 line 0 3;
#X floatatom 896 400 5 0 0 0 - - -;
#X msg 886 297 0.1 300;
#N canvas 585 483 855 292 oscs 0;
#X obj 22 13 inlet;
#X obj 22 124 osc~;
#X obj 94 120 osc~;
#X obj 226 126 osc~;
#X obj 402 129 osc~;
#X obj 88 67 * 1.015;
#X obj 228 74 * 0.503;
#X obj 403 78 * 1.496;
#X obj 612 78 * 2.01;
#X obj 24 241 outlet~;
#X obj 609 128 osc~;
#X connect 0 0 5 0;
#X connect 0 0 6 0;
#X connect 0 0 7 0;
#X connect 0 0 8 0;
#X connect 0 0 1 0;
#X connect 1 0 9 0;
#X connect 2 0 9 0;
#X connect 3 0 9 0;
#X connect 4 0 9 0;
#X connect 5 0 2 0;
#X connect 6 0 3 0;
#X connect 7 0 4 0;
#X connect 8 0 10 0;
#X connect 10 0 9 0;
#X restore 833 400 pd oscs;
#X obj 888 241 metro 900;
#X obj 951 271 delay 300;
#X msg 957 303 0 300;
#X obj 817 468 throw~ out;
#X obj 929 491 mtof;
#X floatatom 927 515 5 0 0 0 - - -;
#X obj 931 565 *~;
#X obj 1072 407 tgl 15 0 empty empty empty 17 7 0 10 -262144 -1 -1
0 1;
#X obj 1071 455 bng 15 250 50 0 empty empty empty 17 7 0 10 -262144
-1 -1;
#X obj 1045 496 line 0 3;
#X floatatom 992 478 5 0 0 0 - - -;
#X msg 1044 474 0.1 300;
#N canvas 357 474 855 292 oscs 0;
#X obj 22 13 inlet;
#X obj 22 124 osc~;
#X obj 87 139 osc~;
#X obj 206 134 osc~;
#X obj 364 132 osc~;
#X obj 81 86 * 1.015;
#X obj 208 82 * 0.503;
#X obj 365 81 * 1.496;
#X obj 531 79 * 2.01;
#X obj 24 241 outlet~;
#X obj 528 129 osc~;
#X obj 697 124 osc~;
#X obj 700 74 * 4.02;
#X obj 789 138 osc~;
#X obj 784 64 * 5.07;
#X connect 0 0 5 0;
#X connect 0 0 6 0;
#X connect 0 0 7 0;
#X connect 0 0 8 0;
#X connect 0 0 1 0;
#X connect 0 0 12 0;
#X connect 0 0 14 0;
#X connect 1 0 9 0;
#X connect 2 0 9 0;
#X connect 3 0 9 0;
#X connect 4 0 9 0;
#X connect 5 0 2 0;
#X connect 6 0 3 0;
#X connect 7 0 4 0;
#X connect 8 0 10 0;
#X connect 10 0 9 0;
#X connect 11 0 9 0;
#X connect 12 0 11 0;
#X connect 13 0 9 0;
#X connect 14 0 13 0;
#X restore 928 536 pd oscs;
#X obj 924 601 throw~ out;
#X obj 1172 503 delay;
#X obj 511 48 vsl 15 128 0 10 0 0 empty empty empty 0 -9 0 10 -191407
-1 -1 0 0;
#X msg 26 27 \; pd dsp 1;
#X msg 125 28 \; pd dsp 0;
#X text 28 6 ON;
#X text 124 9 OFF;
#X obj 610 421 mtof;
#X floatatom 609 449 5 0 0 0 - - -;
#X obj 609 522 *~;
#X obj 690 357 tgl 15 0 empty empty empty 17 7 0 10 -262144 -1 -1 0
1;
#X obj 671 410 bng 15 250 50 0 empty empty empty 17 7 0 10 -262144
-1 -1;
#X obj 661 495 line 0 3;
#X floatatom 660 520 5 0 0 0 - - -;
#X msg 668 447 0.1 300;
#N canvas 585 483 855 292 oscs 0;
#X obj 22 13 inlet;
#X obj 22 124 osc~;
#X obj 94 120 osc~;
#X obj 226 126 osc~;
#X obj 402 129 osc~;
#X obj 88 67 * 1.015;
#X obj 228 74 * 0.503;
#X obj 403 78 * 1.496;
#X obj 612 78 * 2.01;
#X obj 24 241 outlet~;
#X obj 609 128 osc~;
#X connect 0 0 5 0;
#X connect 0 0 6 0;
#X connect 0 0 7 0;
#X connect 0 0 8 0;
#X connect 0 0 1 0;
#X connect 1 0 9 0;
#X connect 2 0 9 0;
#X connect 3 0 9 0;
#X connect 4 0 9 0;
#X connect 5 0 2 0;
#X connect 6 0 3 0;
#X connect 7 0 4 0;
#X connect 8 0 10 0;
#X connect 10 0 9 0;
#X restore 609 494 pd oscs;
#X obj 671 379 metro 900;
#X msg 742 421 0 300;
#X obj 602 563 throw~ out;
#X obj 1027 289 metro 2000;
#X floatatom 1125 282 5 0 0 0 - - -;
#X floatatom 972 340 5 0 0 0 - - -;
#X msg 926 463 74;
#X floatatom 963 406 5 0 0 0 - - -;
#X obj 929 434 spigot;
#X floatatom 1032 384 5 0 0 0 - - -;
#X obj 1006 407 spigot;
#X obj 940 366 > 2350;
#X obj 1035 350 < 2350;
#X obj 227 23 vsl 15 128 0 0.5 0 0 empty empty empty 0 -9 0 10 -260097
-1 -1 3800 0;
#X obj 25 154 *~ 0.001;
#X obj 593 48 vsl 15 128 0 4000 0 0 empty empty empty 0 -9 0 10 -262130
-1 -1 0 1;
#X obj 1184 209 line 0 3;
#X msg 1172 529 0 200;
#X text 229 356 48;
#X obj 742 395 delay 400;
#X obj 482 302 metro 4000;
#X floatatom 570 302 5 0 0 0 - - -;
#X obj 543 355 spigot;
#X floatatom 609 226 5 0 0 0 - - -;
#X msg 1179 185 0 400;
#X obj 1134 163 delay 200;
#X obj 422 48 vsl 15 128 200 700 0 0 empty empty empty 0 -9 0 10 -232576
-1 -1 10300 0;
#X obj 1061 435 metro;
#X obj 1172 473 / 7;
#X floatatom 721 285 5 0 0 0 - - -;
#X obj 711 317 spigot;
#X floatatom 723 232 5 0 0 0 - - -;
#X obj 722 257 > 4;
#X msg 527 446 0 1000;
#X obj 525 422 delay 3000;
#X obj 466 48 vsl 15 128 1000 4500 0 0 empty empty empty 0 -9 0 10
-204800 -1 -1 1600 1;
#X obj 283 347 metro 1000;
#X floatatom 342 567 5 0 0 0 - - -;
#X obj 312 406 delay 250;
#X msg 286 505 0 500;
#X floatatom 618 300 5 0 0 0 - - -;
#X obj 613 354 spigot;
#X msg 612 392 64;
#X msg 1003 437 71;
#X obj 1038 543 / 500;
#X obj 986 510 * 0.07;
#X msg 532 540 67;
#X floatatom 312 579 5 0 0 0 - - -;
#X obj 334 548 / 1.33;
#X floatatom 782 275 5 0 0 0 - - -;
#X obj 782 300 spigot;
#X floatatom 783 230 5 0 0 0 - - -;
#X obj 782 252 < 9;
#X msg 836 300 69;
#X obj 834 204 != 0;
#X obj 677 232 != 0;
#X obj 348 48 vsl 15 128 0 3 0 0 empty empty empty 0 -9 0 10 -261234
-1 -1 1700 1;
#X floatatom 248 205 5 0 0 0 - - -;
#X floatatom 248 251 5 0 0 0 - - -;
#X obj 209 283 spigot;
#X msg 181 309 0 \, 48 2000 100;
#X obj 181 335 line 0 100;
#X obj 248 227 > 0;
#X obj 308 273 != 0;
#X floatatom 365 210 5 0 0 0 - - -;
#X floatatom 365 256 5 0 0 0 - - -;
#X obj 365 283 spigot;
#X obj 364 335 line 0 100;
#X msg 364 309 0 \, 55 2000 100;
#X obj 490 251 != 0;
#X obj 364 231 > 2;
#X obj 574 271 > 5;
#X obj 622 269 < 5;
#X obj 556 48 vsl 15 128 300 1200 0 0 empty empty empty 0 -9 0 10 -262144
-1 -1 0 1;
#X obj 927 210 * 3;
#X text 957 238 comment;
#X msg 736 120 77;
#X msg 776 120 81;
#X msg 854 119 91;
#X msg 894 119 59;
#X obj 665 73 sel 0 1 2 3 4 5 6;
#X text 177 133 volume;
#X obj 377 48 vsl 15 128 0 6 0 0 empty empty empty 0 -9 0 10 -203904
-1 -1 1600 1;
#X obj 716 183 int;
#X floatatom 723 24 5 0 0 0 - - -;
#X obj 1039 319 != 0;
#X msg 698 120 76;
#X msg 654 123 0;
#X msg 814 119 79;
#X obj 804 27 < 1;
#X obj 848 57 spigot;
#X msg 905 79 1;
#X text 325 19 SLIDE ME;
#X obj 11 268 delread~ delayLeft 4000;
#X obj 11 297 delread~ delayRight 350;
#X obj 11 210 delwrite~ delayLeft 1220;
#X obj 11 239 delwrite~ delayRight 3600;
#X obj 65 375 vd~ delayRight;
#X obj 15 460 vd~ delayLeft;
#X obj 23 438 sig~;
#X floatatom 39 408 5 0 0 0 - - -;
#X obj 66 348 sig~ 480;
#X obj 39 556 send~ feedback;
#X text 390 18 SLIDE ME;
#X text 453 18 SLIDE ME;
#X text 515 18 SLIDE ME;
#X text 577 18 SLIDE ME;
#X obj 45 187 receive~ feedback;
#X obj 39 526 *~ 0.7;
#X connect 0 0 1 0;
#X connect 1 0 2 0;
#X connect 2 0 9 0;
#X connect 3 0 31 0;
#X connect 4 0 108 0;
#X connect 5 0 8 0;
#X connect 5 0 110 0;
#X connect 6 0 7 0;
#X connect 7 0 3 1;
#X connect 8 0 6 0;
#X connect 9 0 3 0;
#X connect 10 0 11 0;
#X connect 11 0 12 0;
#X connect 12 0 19 0;
#X connect 13 0 32 0;
#X connect 14 0 92 0;
#X connect 15 0 18 0;
#X connect 15 0 106 0;
#X connect 16 0 17 0;
#X connect 17 0 13 1;
#X connect 18 0 16 0;
#X connect 19 0 13 0;
#X connect 20 0 21 0;
#X connect 21 0 27 0;
#X connect 22 0 33 0;
#X connect 23 0 28 0;
#X connect 24 0 26 0;
#X connect 24 0 97 0;
#X connect 25 0 22 1;
#X connect 26 0 88 0;
#X connect 27 0 22 0;
#X connect 28 0 24 0;
#X connect 30 0 86 0;
#X connect 34 0 35 0;
#X connect 35 0 42 0;
#X connect 36 0 46 0;
#X connect 37 0 43 0;
#X connect 37 0 125 0;
#X connect 38 0 41 0;
#X connect 38 0 44 0;
#X connect 39 0 40 0;
#X connect 40 0 36 1;
#X connect 41 0 39 0;
#X connect 42 0 36 0;
#X connect 43 0 38 0;
#X connect 44 0 45 0;
#X connect 45 0 39 0;
#X connect 47 0 48 0;
#X connect 48 0 55 0;
#X connect 49 0 56 0;
#X connect 50 0 99 0;
#X connect 51 0 54 0;
#X connect 51 0 57 0;
#X connect 52 0 53 0;
#X connect 53 0 117 0;
#X connect 54 0 52 0;
#X connect 55 0 49 0;
#X connect 57 0 89 0;
#X connect 58 0 95 0;
#X connect 58 0 103 0;
#X connect 58 0 123 0;
#X connect 58 0 127 0;
#X connect 58 0 126 0;
#X connect 63 0 64 0;
#X connect 64 0 71 0;
#X connect 65 0 74 0;
#X connect 66 0 72 0;
#X connect 67 0 70 0;
#X connect 67 0 91 0;
#X connect 68 0 69 0;
#X connect 69 0 65 1;
#X connect 70 0 68 0;
#X connect 71 0 65 0;
#X connect 72 0 67 0;
#X connect 73 0 68 0;
#X connect 75 0 50 0;
#X connect 76 0 75 1;
#X connect 77 0 83 0;
#X connect 77 0 84 0;
#X connect 78 0 47 0;
#X connect 79 0 80 1;
#X connect 79 0 80 0;
#X connect 80 0 78 0;
#X connect 81 0 82 1;
#X connect 81 0 82 0;
#X connect 82 0 115 0;
#X connect 83 0 79 0;
#X connect 84 0 81 0;
#X connect 85 0 86 1;
#X connect 86 0 167 0;
#X connect 86 0 168 0;
#X connect 87 0 77 0;
#X connect 87 0 75 0;
#X connect 87 0 76 0;
#X connect 87 0 157 0;
#X connect 88 0 25 0;
#X connect 89 0 52 0;
#X connect 91 0 73 0;
#X connect 92 0 15 0;
#X connect 93 0 94 1;
#X connect 93 0 94 0;
#X connect 94 0 118 0;
#X connect 95 0 143 0;
#X connect 95 0 144 0;
#X connect 96 0 88 0;
#X connect 97 0 96 0;
#X connect 98 0 99 1;
#X connect 98 0 100 0;
#X connect 98 0 116 0;
#X connect 99 0 51 0;
#X connect 100 0 57 0;
#X connect 101 0 102 1;
#X connect 101 0 102 0;
#X connect 102 0 66 0;
#X connect 103 0 104 0;
#X connect 104 0 101 0;
#X connect 105 0 16 0;
#X connect 106 0 105 0;
#X connect 107 0 108 1;
#X connect 107 0 109 0;
#X connect 107 0 120 0;
#X connect 108 0 5 0;
#X connect 110 0 111 0;
#X connect 111 0 6 0;
#X connect 112 0 113 0;
#X connect 112 0 113 1;
#X connect 113 0 114 0;
#X connect 114 0 63 0;
#X connect 115 0 47 0;
#X connect 116 0 117 1;
#X connect 117 0 49 1;
#X connect 118 0 63 0;
#X connect 119 0 110 1;
#X connect 120 0 119 0;
#X connect 121 0 122 1;
#X connect 121 0 122 0;
#X connect 122 0 37 0;
#X connect 123 0 124 0;
#X connect 124 0 121 0;
#X connect 125 0 34 0;
#X connect 126 0 37 0;
#X connect 127 0 66 0;
#X connect 128 0 129 0;
#X connect 128 0 135 0;
#X connect 128 0 136 0;
#X connect 128 0 141 0;
#X connect 129 0 134 0;
#X connect 130 0 131 1;
#X connect 130 0 131 0;
#X connect 131 0 132 0;
#X connect 131 0 4 0;
#X connect 132 0 133 0;
#X connect 133 0 0 0;
#X connect 134 0 130 0;
#X connect 135 0 4 0;
#X connect 136 0 142 0;
#X connect 137 0 138 1;
#X connect 137 0 138 0;
#X connect 138 0 140 0;
#X connect 139 0 10 0;
#X connect 140 0 139 0;
#X connect 141 0 14 0;
#X connect 142 0 137 0;
#X connect 143 0 93 0;
#X connect 144 0 112 0;
#X connect 145 0 72 1;
#X connect 145 0 146 0;
#X connect 146 0 43 1;
#X connect 148 0 20 0;
#X connect 149 0 20 0;
#X connect 150 0 20 0;
#X connect 151 0 20 0;
#X connect 152 0 159 0;
#X connect 152 1 158 0;
#X connect 152 2 148 0;
#X connect 152 3 149 0;
#X connect 152 4 160 0;
#X connect 152 5 150 0;
#X connect 152 7 151 0;
#X connect 154 0 155 0;
#X connect 155 0 156 0;
#X connect 155 0 152 0;
#X connect 156 0 161 0;
#X connect 157 0 50 0;
#X connect 158 0 20 0;
#X connect 159 0 20 0;
#X connect 160 0 20 0;
#X connect 161 0 162 0;
#X connect 161 0 162 1;
#X connect 162 0 163 0;
#X connect 163 0 23 0;
#X connect 165 0 29 0;
#X connect 166 0 29 1;
#X connect 166 0 180 0;
#X connect 169 0 29 1;
#X connect 170 0 29 0;
#X connect 171 0 170 0;
#X connect 172 0 171 0;
#X connect 173 0 169 0;
#X connect 179 0 168 0;
#X connect 180 0 174 0;
